<?xml version="1.0" encoding="UTF-8" standalone="no"?>
<!DOCTYPE svg PUBLIC "-//W3C//DTD SVG 1.1//EN" "http://www.w3.org/Graphics/SVG/1.1/DTD/svg11.dtd">
<!-- Created with Vectornator (http://vectornator.io/) -->
<svg height="100%" stroke-miterlimit="10" style="fill-rule:nonzero;clip-rule:evenodd;stroke-linecap:round;stroke-linejoin:round;" version="1.1" viewBox="0 0 137 23" width="100%" xml:space="preserve" xmlns="http://www.w3.org/2000/svg" xmlns:vectornator="http://vectornator.io" xmlns:xlink="http://www.w3.org/1999/xlink">
<defs/>
<g id="Untitled" vectornator:layerName="Untitled">
<path d="M10.4545 0C9.35139 1.58314 10.447 5.76875 10.6868 7.66667L11.6161 7.43434C11.3577 5.38927 11.5997 1.67624 10.4545 0Z" fill="#ff7000" fill-rule="nonzero" opacity="1" stroke="none" vectornator:layerName="path"/>
<path d="M13.4748 0.232422L11.8485 7.43444L12.7778 7.66677L14.1717 0.464745L13.4748 0.232422Z" fill="#ff7000" fill-rule="nonzero" opacity="1" stroke="none" vectornator:layerName="path"/>
<path d="M6.73743 1.16152L9.29299 7.8989L4.87884 2.55546L3.94955 2.78778L8.36369 8.82819L2.09097 4.87869L1.85864 5.80799L8.13137 9.75748L9.29299 7.8989L10.4546 7.66657L7.66672 0.929199L6.73743 1.16152Z" fill="#ff7000" fill-rule="nonzero" opacity="1" stroke="none" vectornator:layerName="path"/>
<path d="M16.495 1.16162L13.0101 7.89899C14.6309 8.14428 17.5934 2.41568 16.495 1.16162Z" fill="#ff7000" fill-rule="nonzero" opacity="1" stroke="none" vectornator:layerName="path"/>
<path d="M14.1718 8.82813C16.2617 8.38753 18.7828 5.18398 19.9798 3.4847C18.0304 3.32137 14.6725 7.04403 14.1718 8.82813Z" fill="#ff7000" fill-rule="nonzero" opacity="1" stroke="none" vectornator:layerName="path"/>
<path d="M0.696923 7.89893L0.4646 8.5959C2.42945 9.62711 5.44754 10.5854 7.66662 10.6868C7.06518 8.95723 2.38006 8.24727 0.696923 7.89893Z" fill="#ff7000" fill-rule="nonzero" opacity="1" stroke="none" vectornator:layerName="path"/>
<path d="M0 11.1516L0 12.0809L7.43434 12.0809L7.43434 11.1516L0 11.1516Z" fill="#ff7000" fill-rule="nonzero" opacity="1" stroke="none" vectornator:layerName="path"/>
<path d="M15.5657 12.0809L23 11.8485L23 11.3839C21.525 10.9479 16.1205 10.4093 15.5657 12.0809Z" fill="#ff7000" fill-rule="nonzero" opacity="1" stroke="none" vectornator:layerName="path"/>
<path d="M15.3334 12.5457C15.9364 14.2785 20.622 14.9856 22.3031 15.3335L22.5354 15.1012L22.5354 14.6366C20.5579 13.5987 17.5666 12.643 15.3334 12.5457Z" fill="#ff7000" fill-rule="nonzero" opacity="1" stroke="none" vectornator:layerName="path"/>
<path d="M15.1011 13.4749L14.6365 14.4041L20.9092 18.3536L21.1415 17.4243L15.1011 13.4749Z" fill="#ff7000" fill-rule="nonzero" opacity="1" stroke="none" vectornator:layerName="path"/>
<path d="M3.25256 19.7475L3.48489 19.9798L9.06064 15.101C7.56367 13.7254 3.87651 18.4095 3.25256 19.7475Z" fill="#ff7000" fill-rule="nonzero" opacity="1" stroke="none" vectornator:layerName="path"/>
<path d="M15.3334 22.3031L16.2627 22.3031L13.7072 15.101L13.9395 15.101C14.8923 16.9475 16.9246 19.7752 18.8183 20.6768L19.0506 20.4445C18.2992 18.7585 16.4896 16.3427 15.0339 15.1849C14.4132 14.6913 13.2379 14.8027 12.9424 15.6564C12.4179 17.1723 14.9044 20.7351 15.3334 22.3031Z" fill="#ff7000" fill-rule="nonzero" opacity="1" stroke="none" vectornator:layerName="path"/>
<path d="M9.0606 15.1011C8.41135 16.6605 5.23375 20.6991 6.50504 22.0708L9.98989 15.3334L9.0606 15.1011Z" fill="#ff7000" fill-rule="nonzero" opacity="1" stroke="none" vectornator:layerName="path"/>
<path d="M10.2223 15.5657L9.06067 23C11.1948 22.3758 10.0118 17.4403 11.6162 16.0303C11.6162 17.5172 11.401 22.5293 13.0102 23C13.0092 21.5046 13.3123 17.1189 12.3067 15.9903C11.8991 15.5329 10.7878 15.6271 10.2223 15.5657Z" fill="#ff7000" fill-rule="nonzero" opacity="1" stroke="none" vectornator:layerName="path"/>
<path d="M64.6035 18.2555C62.9978 18.2555 61.7205 17.8175 60.7717 16.9417C59.8229 16.0537 59.3484 14.7886 59.3484 13.1464L59.3484 10.0809C59.3484 8.43874 59.8229 7.17972 60.7717 6.30388C61.7205 5.41588 62.9978 4.97188 64.6035 4.97188C66.2092 4.97188 67.4865 5.41588 68.4353 6.30388C69.3841 7.17972 69.8585 8.43874 69.8585 10.0809L69.8585 13.1464C69.8585 14.7886 69.3841 16.0537 68.4353 16.9417C67.4865 17.8175 66.2092 18.2555 64.6035 18.2555ZM64.6035 16.1023C65.5037 16.1023 66.2031 15.8408 66.7019 15.3177C67.2006 14.7947 67.45 14.0952 67.45 13.2194L67.45 10.008C67.45 9.13212 67.2006 8.43266 66.7019 7.90959C66.2031 7.38652 65.5037 7.12498 64.6035 7.12498C63.7155 7.12498 63.016 7.38652 62.5051 7.90959C62.0064 8.43266 61.757 9.13212 61.757 10.008L61.757 13.2194C61.757 14.0952 62.0064 14.7947 62.5051 15.3177C63.016 15.8408 63.7155 16.1023 64.6035 16.1023ZM73.9418 18L71.0588 8.94965L73.5039 8.94965L75.6022 16.3213L75.9307 16.3213L78.029 8.94965L80.4741 8.94965L77.5911 18L73.9418 18ZM85.8971 18.2555C84.9969 18.2555 84.2001 18.0669 83.5067 17.6898C82.8255 17.3005 82.2903 16.7592 81.901 16.0659C81.5239 15.3603 81.3354 14.5331 81.3354 13.5843L81.3354 13.3653C81.3354 12.4165 81.5239 11.5954 81.901 10.902C82.2781 10.1965 82.8073 9.65519 83.4885 9.27809C84.1697 8.88883 84.9604 8.6942 85.8606 8.6942C86.7486 8.6942 87.521 8.89491 88.1779 9.29634C88.8348 9.6856 89.3457 10.233 89.7106 10.9385C90.0756 11.6319 90.258 12.4408 90.258 13.3653L90.258 14.15L83.671 14.15C83.6953 14.7703 83.9264 15.2752 84.3643 15.6644C84.8023 16.0537 85.3375 16.2483 85.97 16.2483C86.6148 16.2483 87.0892 16.1084 87.3933 15.8286C87.6974 15.5489 87.9285 15.2387 88.0867 14.8981L89.9661 15.8834C89.7958 16.1997 89.5464 16.5463 89.218 16.9234C88.9017 17.2884 88.4759 17.6047 87.9407 17.8723C87.4055 18.1277 86.7242 18.2555 85.8971 18.2555ZM83.6892 12.4348L87.9224 12.4348C87.8738 11.9117 87.6609 11.492 87.2838 11.1757C86.9189 10.8595 86.4384 10.7013 85.8423 10.7013C85.2219 10.7013 84.7293 10.8595 84.3643 11.1757C83.9994 11.492 83.7744 11.9117 83.6892 12.4348ZM92.3044 18L92.3044 8.94965L94.5669 8.94965L94.5669 9.97146L94.8954 9.97146C95.0292 9.60653 95.2481 9.33891 95.5523 9.16861C95.8685 8.99831 96.2335 8.91316 96.6471 8.91316L97.7419 8.91316L97.7419 10.9568L96.6106 10.9568C96.0267 10.9568 95.5462 11.1149 95.1691 11.4312C94.792 11.7353 94.6034 12.2097 94.6034 12.8544L94.6034 18L92.3044 18ZM101.035 18L101.035 10.8473L98.736 10.8473L98.736 8.94965L101.035 8.94965L101.035 7.27096C101.035 6.65057 101.218 6.15791 101.582 5.79298C101.96 5.41588 102.446 5.22733 103.042 5.22733L105.414 5.22733L105.414 7.12498L103.845 7.12498C103.504 7.12498 103.334 7.30745 103.334 7.67238L103.334 8.94965L105.706 8.94965L105.706 10.8473L103.334 10.8473L103.334 18L101.035 18ZM106.984 18L106.984 5.22733L109.283 5.22733L109.283 18L106.984 18ZM116.14 18.2555C115.24 18.2555 114.431 18.073 113.713 17.7081C112.996 17.3431 112.43 16.814 112.016 16.1206C111.603 15.4272 111.396 14.594 111.396 13.6208L111.396 13.3289C111.396 12.3557 111.603 11.5224 112.016 10.8291C112.43 10.1357 112.996 9.60653 113.713 9.2416C114.431 8.87666 115.24 8.6942 116.14 8.6942C117.04 8.6942 117.849 8.87666 118.567 9.2416C119.285 9.60653 119.85 10.1357 120.264 10.8291C120.678 11.5224 120.884 12.3557 120.884 13.3289L120.884 13.6208C120.884 14.594 120.678 15.4272 120.264 16.1206C119.85 16.814 119.285 17.3431 118.567 17.7081C117.849 18.073 117.04 18.2555 116.14 18.2555ZM116.14 16.2118C116.846 16.2118 117.43 15.9868 117.892 15.5367C118.354 15.0745 118.585 14.4176 118.585 13.5661L118.585 13.3836C118.585 12.5321 118.354 11.8813 117.892 11.4312C117.442 10.9689 116.858 10.7378 116.14 10.7378C115.435 10.7378 114.851 10.9689 114.389 11.4312C113.926 11.8813 113.695 12.5321 113.695 13.3836L113.695 13.5661C113.695 14.4176 113.926 15.0745 114.389 15.5367C114.851 15.9868 115.435 16.2118 116.14 16.2118ZM123.701 18L122.423 8.94965L124.704 8.94965L125.507 16.449L125.836 16.449L127.003 8.94965L130.689 8.94965L131.857 16.449L132.185 16.449L132.988 8.94965L135.269 8.94965L133.992 18L130.178 18L129.011 10.5006L128.682 10.5006L127.514 18L123.701 18Z" fill="#ff7000" fill-rule="nonzero" opacity="1" stroke="none" vectornator:layerName="path"/>
<g fill="#191f23" opacity="1" stroke="none" vectornator:layerName="Text 1">
<path d="M35.746 17.6692L33.6405 17.6692L29.5253 10.5119L29.5253 17.6692L27.5634 17.6692L27.5634 7.59298L29.7714 7.59298L33.7841 14.6272L33.7841 7.59298L35.746 7.59298L35.746 17.6692Z"/>
<path d="M43.9286 15.4817C43.8785 15.9237 43.6483 16.3726 43.2382 16.8283C42.6002 17.5529 41.7069 17.9152 40.5585 17.9152C39.6106 17.9152 38.7743 17.6099 38.0497 16.9992C37.3251 16.3886 36.9628 15.3951 36.9628 14.0188C36.9628 12.729 37.2898 11.7401 37.9437 11.052C38.5977 10.3638 39.4465 10.0197 40.4901 10.0197C41.1099 10.0197 41.6682 10.1359 42.1649 10.3684C42.6617 10.6008 43.0718 10.9677 43.3954 11.469C43.6871 11.911 43.8762 12.4237 43.9628 13.007C44.0129 13.3488 44.0334 13.841 44.0243 14.4836L38.9247 14.4836C38.952 15.231 39.1867 15.7551 39.6288 16.0559C39.8977 16.2427 40.2213 16.3361 40.5995 16.3361C41.0005 16.3361 41.3264 16.2222 41.577 15.9943C41.7138 15.8713 41.8345 15.7004 41.9394 15.4817L43.9286 15.4817ZM42.0009 13.1984C41.969 12.6835 41.8129 12.2927 41.5326 12.0261C41.2523 11.7595 40.9048 11.6262 40.4901 11.6262C40.039 11.6262 39.6892 11.7675 39.4408 12.05C39.1924 12.3326 39.0364 12.7154 38.9726 13.1984L42.0009 13.1984Z"/>
<path d="M51.9745 17.6692L49.5477 17.6692L48.2626 15.4338L46.9706 17.6692L44.6054 17.6692L47.1483 13.8957L44.7147 10.2317L47.1005 10.2317L48.3446 12.3918L49.5614 10.2317L51.8788 10.2317L49.4315 13.8615L51.9745 17.6692Z"/>
<path d="M56.5341 16.2815L56.5341 17.7375L55.6112 17.7717C54.6907 17.8036 54.0617 17.6441 53.7245 17.2932C53.5058 17.0699 53.3964 16.7258 53.3964 16.2609L53.3964 11.674L52.3573 11.674L52.3573 10.2863L53.3964 10.2863L53.3964 8.20821L55.3241 8.20821L55.3241 10.2863L56.5341 10.2863L56.5341 11.674L55.3241 11.674L55.3241 15.6115C55.3241 15.9169 55.3629 16.1071 55.4403 16.1823C55.5178 16.2575 55.7548 16.2951 56.1513 16.2951C56.2105 16.2951 56.2732 16.294 56.3393 16.2917C56.4053 16.2894 56.4703 16.286 56.5341 16.2815Z"/>
</g>
</g>
</svg>
