<?xml version="1.0" encoding="UTF-8" standalone="no"?>
<!DOCTYPE svg PUBLIC "-//W3C//DTD SVG 1.1//EN" "http://www.w3.org/Graphics/SVG/1.1/DTD/svg11.dtd">
<!-- Created with Vectornator (http://vectornator.io/) -->
<svg height="100%" stroke-miterlimit="10" style="fill-rule:nonzero;clip-rule:evenodd;stroke-linecap:round;stroke-linejoin:round;" version="1.1" viewBox="0 0 137 23" width="100%" xml:space="preserve" xmlns="http://www.w3.org/2000/svg" xmlns:vectornator="http://vectornator.io" xmlns:xlink="http://www.w3.org/1999/xlink">
<defs/>
<clipPath id="ArtboardFrame">
<rect height="23" width="137" x="0" y="0"/>
</clipPath>
<g clip-path="url(#ArtboardFrame)" id="Untitled" vectornator:layerName="Untitled">
<path d="M10.4544 0C9.35127 1.58314 10.4469 5.76875 10.6867 7.66667L11.616 7.43434C11.3575 5.38927 11.5995 1.67624 10.4544 0Z" fill="#ff7000" fill-rule="nonzero" opacity="1" stroke="none" vectornator:layerName="path"/>
<path d="M13.4749 0.232422L11.8486 7.43444L12.7779 7.66677L14.1719 0.464745L13.4749 0.232422Z" fill="#ff7000" fill-rule="nonzero" opacity="1" stroke="none" vectornator:layerName="path"/>
<path d="M6.73719 1.16152L9.29274 7.8989L4.8786 2.55546L3.94931 2.78778L8.36345 8.82819L2.09072 4.87869L1.8584 5.80799L8.13113 9.75748L9.29274 7.8989L10.4544 7.66657L7.66648 0.929199L6.73719 1.16152Z" fill="#ff7000" fill-rule="nonzero" opacity="1" stroke="none" vectornator:layerName="path"/>
<path d="M16.4946 1.16162L13.0098 7.89899C14.6305 8.14428 17.593 2.41568 16.4946 1.16162Z" fill="#ff7000" fill-rule="nonzero" opacity="1" stroke="none" vectornator:layerName="path"/>
<path d="M14.1719 8.82813C16.2618 8.38753 18.783 5.18398 19.98 3.4847C18.0305 3.32137 14.6726 7.04403 14.1719 8.82813Z" fill="#ff7000" fill-rule="nonzero" opacity="1" stroke="none" vectornator:layerName="path"/>
<path d="M0.697167 7.89893L0.464844 8.5959C2.42969 9.62711 5.44778 10.5854 7.66686 10.6868C7.06542 8.95723 2.3803 8.24727 0.697167 7.89893Z" fill="#ff7000" fill-rule="nonzero" opacity="1" stroke="none" vectornator:layerName="path"/>
<path d="M0 11.1514L0 12.0807L7.43434 12.0807L7.43434 11.1514L0 11.1514Z" fill="#ff7000" fill-rule="nonzero" opacity="1" stroke="none" vectornator:layerName="path"/>
<path d="M15.5664 12.0809L23.0007 11.8485L23.0007 11.3839C21.5257 10.9479 16.1212 10.4093 15.5664 12.0809Z" fill="#ff7000" fill-rule="nonzero" opacity="1" stroke="none" vectornator:layerName="path"/>
<path d="M15.334 12.5454C15.937 14.2783 20.6226 14.9854 22.3037 15.3333L22.536 15.101L22.536 14.6363C20.5585 13.5984 17.5672 12.6428 15.334 12.5454Z" fill="#ff7000" fill-rule="nonzero" opacity="1" stroke="none" vectornator:layerName="path"/>
<path d="M15.1014 13.4746L14.6367 14.4039L20.9094 18.3534L21.1418 17.4241L15.1014 13.4746Z" fill="#ff7000" fill-rule="nonzero" opacity="1" stroke="none" vectornator:layerName="path"/>
<path d="M3.25293 19.7477L3.48525 19.98L9.06101 15.1013C7.56404 13.7257 3.87688 18.4098 3.25293 19.7477Z" fill="#ff7000" fill-rule="nonzero" opacity="1" stroke="none" vectornator:layerName="path"/>
<path d="M15.3334 22.3031L16.2627 22.3031L13.7072 15.101L13.9395 15.101C14.8923 16.9475 16.9246 19.7752 18.8183 20.6768L19.0506 20.4445C18.2992 18.7585 16.4896 16.3427 15.0339 15.1849C14.4132 14.6913 13.2379 14.8027 12.9424 15.6564C12.4179 17.1723 14.9044 20.7351 15.3334 22.3031Z" fill="#ff7000" fill-rule="nonzero" opacity="1" stroke="none" vectornator:layerName="path"/>
<path d="M9.06084 15.1011C8.41159 16.6605 5.23399 20.6991 6.50529 22.0708L9.99014 15.3334L9.06084 15.1011Z" fill="#ff7000" fill-rule="nonzero" opacity="1" stroke="none" vectornator:layerName="path"/>
<path d="M10.2222 15.5659L9.06055 23.0003C11.1946 22.376 10.0117 17.4405 11.6161 16.0306C11.6161 17.5174 11.4009 22.5296 13.01 23.0003C13.009 21.5048 13.3122 17.1191 12.3066 15.9906C11.899 15.5332 10.7877 15.6273 10.2222 15.5659Z" fill="#ff7000" fill-rule="nonzero" opacity="1" stroke="none" vectornator:layerName="path"/>
<path d="M64.6034 18.2555C62.9977 18.2555 61.7204 17.8175 60.7716 16.9417C59.8227 16.0537 59.3483 14.7886 59.3483 13.1464L59.3483 10.0809C59.3483 8.43874 59.8227 7.17972 60.7716 6.30388C61.7204 5.41588 62.9977 4.97188 64.6034 4.97188C66.2091 4.97188 67.4863 5.41588 68.4352 6.30388C69.384 7.17972 69.8584 8.43874 69.8584 10.0809L69.8584 13.1464C69.8584 14.7886 69.384 16.0537 68.4352 16.9417C67.4863 17.8175 66.2091 18.2555 64.6034 18.2555ZM64.6034 16.1023C65.5035 16.1023 66.203 15.8408 66.7017 15.3177C67.2005 14.7947 67.4498 14.0952 67.4498 13.2194L67.4498 10.008C67.4498 9.13212 67.2005 8.43266 66.7017 7.90959C66.203 7.38652 65.5035 7.12498 64.6034 7.12498C63.7154 7.12498 63.0159 7.38652 62.505 7.90959C62.0063 8.43266 61.7569 9.13212 61.7569 10.008L61.7569 13.2194C61.7569 14.0952 62.0063 14.7947 62.505 15.3177C63.0159 15.8408 63.7154 16.1023 64.6034 16.1023ZM73.9417 18L71.0587 8.94965L73.5037 8.94965L75.6021 16.3213L75.9306 16.3213L78.0289 8.94965L80.474 8.94965L77.591 18L73.9417 18ZM85.8969 18.2555C84.9968 18.2555 84.2 18.0669 83.5066 17.6898C82.8254 17.3005 82.2902 16.7592 81.9009 16.0659C81.5238 15.3603 81.3353 14.5331 81.3353 13.5843L81.3353 13.3653C81.3353 12.4165 81.5238 11.5954 81.9009 10.902C82.278 10.1965 82.8072 9.65519 83.4884 9.27809C84.1696 8.88883 84.9603 8.6942 85.8604 8.6942C86.7485 8.6942 87.5209 8.89491 88.1778 9.29634C88.8347 9.6856 89.3456 10.233 89.7105 10.9385C90.0754 11.6319 90.2579 12.4408 90.2579 13.3653L90.2579 14.15L83.6708 14.15C83.6952 14.7703 83.9263 15.2752 84.3642 15.6644C84.8021 16.0537 85.3374 16.2483 85.9699 16.2483C86.6146 16.2483 87.0891 16.1084 87.3932 15.8286C87.6973 15.5489 87.9284 15.2387 88.0865 14.8981L89.9659 15.8834C89.7956 16.1997 89.5463 16.5463 89.2178 16.9234C88.9016 17.2884 88.4758 17.6047 87.9406 17.8723C87.4053 18.1277 86.7241 18.2555 85.8969 18.2555ZM83.6891 12.4348L87.9223 12.4348C87.8737 11.9117 87.6608 11.492 87.2837 11.1757C86.9188 10.8595 86.4383 10.7013 85.8422 10.7013C85.2218 10.7013 84.7292 10.8595 84.3642 11.1757C83.9993 11.492 83.7742 11.9117 83.6891 12.4348ZM92.3042 18L92.3042 8.94965L94.5668 8.94965L94.5668 9.97146L94.8953 9.97146C95.0291 9.60653 95.248 9.33891 95.5521 9.16861C95.8684 8.99831 96.2333 8.91316 96.6469 8.91316L97.7417 8.91316L97.7417 10.9568L96.6104 10.9568C96.0266 10.9568 95.5461 11.1149 95.169 11.4312C94.7919 11.7353 94.6033 12.2097 94.6033 12.8544L94.6033 18L92.3042 18ZM101.035 18L101.035 10.8473L98.7359 10.8473L98.7359 8.94965L101.035 8.94965L101.035 7.27096C101.035 6.65057 101.217 6.15791 101.582 5.79298C101.959 5.41588 102.446 5.22733 103.042 5.22733L105.414 5.22733L105.414 7.12498L103.845 7.12498C103.504 7.12498 103.334 7.30745 103.334 7.67238L103.334 8.94965L105.706 8.94965L105.706 10.8473L103.334 10.8473L103.334 18L101.035 18ZM106.983 18L106.983 5.22733L109.282 5.22733L109.282 18L106.983 18ZM116.14 18.2555C115.24 18.2555 114.431 18.073 113.713 17.7081C112.996 17.3431 112.43 16.814 112.016 16.1206C111.603 15.4272 111.396 14.594 111.396 13.6208L111.396 13.3289C111.396 12.3557 111.603 11.5224 112.016 10.8291C112.43 10.1357 112.996 9.60653 113.713 9.2416C114.431 8.87666 115.24 8.6942 116.14 8.6942C117.04 8.6942 117.849 8.87666 118.567 9.2416C119.285 9.60653 119.85 10.1357 120.264 10.8291C120.677 11.5224 120.884 12.3557 120.884 13.3289L120.884 13.6208C120.884 14.594 120.677 15.4272 120.264 16.1206C119.85 16.814 119.285 17.3431 118.567 17.7081C117.849 18.073 117.04 18.2555 116.14 18.2555ZM116.14 16.2118C116.846 16.2118 117.43 15.9868 117.892 15.5367C118.354 15.0745 118.585 14.4176 118.585 13.5661L118.585 13.3836C118.585 12.5321 118.354 11.8813 117.892 11.4312C117.442 10.9689 116.858 10.7378 116.14 10.7378C115.435 10.7378 114.851 10.9689 114.388 11.4312C113.926 11.8813 113.695 12.5321 113.695 13.3836L113.695 13.5661C113.695 14.4176 113.926 15.0745 114.388 15.5367C114.851 15.9868 115.435 16.2118 116.14 16.2118ZM123.701 18L122.423 8.94965L124.704 8.94965L125.507 16.449L125.835 16.449L127.003 8.94965L130.689 8.94965L131.857 16.449L132.185 16.449L132.988 8.94965L135.269 8.94965L133.992 18L130.178 18L129.01 10.5006L128.682 10.5006L127.514 18L123.701 18Z" fill="#ff7000" fill-rule="nonzero" opacity="1" stroke="none" vectornator:layerName="path"/>
<g fill="#ffffff" opacity="1" stroke="none" vectornator:layerName="Text 2">
<path d="M33.7155 17.4795L31.6101 17.4795L27.4948 10.3223L27.4948 17.4795L25.5329 17.4795L25.5329 7.40332L27.7409 7.40332L31.7536 14.4375L31.7536 7.40332L33.7155 7.40332L33.7155 17.4795Z"/>
<path d="M41.8982 15.292C41.848 15.7341 41.6179 16.1829 41.2077 16.6387C40.5697 17.3633 39.6765 17.7256 38.528 17.7256C37.5801 17.7256 36.7439 17.4203 36.0193 16.8096C35.2946 16.1989 34.9323 15.2054 34.9323 13.8291C34.9323 12.5394 35.2593 11.5505 35.9133 10.8623C36.5673 10.1742 37.4161 9.83008 38.4597 9.83008C39.0795 9.83008 39.6377 9.94629 40.1345 10.1787C40.6312 10.4111 41.0414 10.778 41.365 11.2793C41.6566 11.7214 41.8458 12.2341 41.9323 12.8174C41.9825 13.1592 42.003 13.6514 41.9939 14.2939L36.8943 14.2939C36.9216 15.0413 37.1563 15.5654 37.5984 15.8662C37.8672 16.0531 38.1908 16.1465 38.5691 16.1465C38.9701 16.1465 39.2959 16.0326 39.5466 15.8047C39.6833 15.6816 39.8041 15.5107 39.9089 15.292L41.8982 15.292ZM39.9704 13.0088C39.9385 12.4938 39.7824 12.103 39.5022 11.8364C39.2219 11.5698 38.8744 11.4365 38.4597 11.4365C38.0085 11.4365 37.6587 11.5778 37.4104 11.8604C37.162 12.1429 37.0059 12.5257 36.9421 13.0088L39.9704 13.0088Z"/>
<path d="M49.9441 17.4795L47.5173 17.4795L46.2321 15.2441L44.9402 17.4795L42.5749 17.4795L45.1179 13.7061L42.6843 10.042L45.07 10.042L46.3142 12.2022L47.531 10.042L49.8484 10.042L47.4011 13.6719L49.9441 17.4795Z"/>
<path d="M54.5036 16.0918L54.5036 17.5479L53.5808 17.582C52.6602 17.6139 52.0313 17.4544 51.6941 17.1035C51.4753 16.8802 51.3659 16.5361 51.3659 16.0713L51.3659 11.4844L50.3269 11.4844L50.3269 10.0967L51.3659 10.0967L51.3659 8.01856L53.2937 8.01856L53.2937 10.0967L54.5036 10.0967L54.5036 11.4844L53.2937 11.4844L53.2937 15.4219C53.2937 15.7272 53.3324 15.9175 53.4099 15.9927C53.4874 16.0679 53.7243 16.1055 54.1208 16.1055C54.1801 16.1055 54.2427 16.1043 54.3088 16.1021C54.3749 16.0998 54.4398 16.0964 54.5036 16.0918Z"/>
</g>
</g>
</svg>
